<?xml version="1.0" encoding="UTF-8" standalone="no"?>
<svg width="192px" height="192px" viewBox="0 0 192 192" version="1.1" xmlns="http://www.w3.org/2000/svg" xmlns:xlink="http://www.w3.org/1999/xlink">
    <!-- Generator: Sketch 39.1 (31720) - http://www.bohemiancoding.com/sketch -->
    <title>favicon</title>
    <desc>Created with Sketch.</desc>
    <defs>
        <linearGradient x1="92.5073104%" y1="72.533869%" x2="8.00281924%" y2="23.8962359%" id="linearGradient-1">
            <stop stop-color="#7B1FA2" offset="0%"></stop>
            <stop stop-color="#673AB7" offset="100%"></stop>
        </linearGradient>
        <rect id="path-2" x="0" y="0" width="192" height="181" rx="40"></rect>
        <linearGradient x1="85.3553391%" y1="85.3553391%" x2="14.6446609%" y2="14.6446609%" id="linearGradient-4">
            <stop stop-color="#000000" stop-opacity="0" offset="0%"></stop>
            <stop stop-color="#000000" stop-opacity="0.2" offset="100%"></stop>
        </linearGradient>
        <linearGradient x1="50%" y1="100%" x2="50%" y2="0%" id="linearGradient-5">
            <stop stop-color="#000000" stop-opacity="0" offset="0%"></stop>
            <stop stop-color="#000000" stop-opacity="0.2" offset="100%"></stop>
        </linearGradient>
        <linearGradient x1="50%" y1="0%" x2="50%" y2="100%" id="linearGradient-6">
            <stop stop-color="#FFEB3B" offset="0%"></stop>
            <stop stop-color="#FDD835" offset="100%"></stop>
        </linearGradient>
        <path d="M1.125,185.05 L71.125,185.05 L71.125,91.3 L1.125,91.3 L1.125,185.05 L1.125,185.05 Z M1.125,268.55 L71.125,268.55 L71.125,212.3 L1.125,212.3 L1.125,268.55 L1.125,268.55 Z M1.125,63.75 L71.125,63.75 L71.125,7.5 L1.125,7.5 L1.125,63.75 L1.125,63.75 Z M98.875,217.475 L168.875,217.475 L168.875,123.725 L98.875,123.725 L98.875,217.475 L98.875,217.475 Z M98.875,38.725 L98.875,94.975 L168.875,94.975 L168.875,38.725 L98.875,38.725 L98.875,38.725 Z" id="path-7"></path>
        <filter x="-50%" y="-50%" width="200%" height="200%" filterUnits="objectBoundingBox" id="filter-8">
            <feOffset dx="0" dy="2" in="SourceAlpha" result="shadowOffsetOuter1"></feOffset>
            <feGaussianBlur stdDeviation="2" in="shadowOffsetOuter1" result="shadowBlurOuter1"></feGaussianBlur>
            <feColorMatrix values="0 0 0 0 0   0 0 0 0 0   0 0 0 0 0  0 0 0 0.5 0" type="matrix" in="shadowBlurOuter1"></feColorMatrix>
        </filter>
        <rect id="path-9" x="0" y="0" width="192" height="181" rx="40"></rect>
        <filter x="-50%" y="-50%" width="200%" height="200%" filterUnits="objectBoundingBox" id="filter-10">
            <feGaussianBlur stdDeviation="5" in="SourceAlpha" result="shadowBlurInner1"></feGaussianBlur>
            <feOffset dx="0" dy="1" in="shadowBlurInner1" result="shadowOffsetInner1"></feOffset>
            <feComposite in="shadowOffsetInner1" in2="SourceAlpha" operator="arithmetic" k2="-1" k3="1" result="shadowInnerInner1"></feComposite>
            <feColorMatrix values="0 0 0 0 0   0 0 0 0 0   0 0 0 0 0  0 0 0 0.27 0" type="matrix" in="shadowInnerInner1"></feColorMatrix>
        </filter>
    </defs>
    <g id="Page-1" stroke="none" stroke-width="1" fill="none" fill-rule="evenodd">
        <g id="favicon">
            <g id="Sign" transform="translate(0.000000, 6.000000)">
                <rect id="Rectangle-3" fill="url(#linearGradient-1)" x="0" y="0" width="192" height="181" rx="40"></rect>
                <g id="ic_dashboard_black_48px" opacity="0.980000019">
                    <g>
                        <mask id="mask-3" fill="white">
                            <use xlink:href="#path-2"></use>
                        </mask>
                        <use id="Mask" fill="url(#linearGradient-1)" xlink:href="#path-2"></use>
                        <g mask="url(#mask-3)">
                            <g transform="translate(11.300000, -36.100000)">
                                <g id="Long-Shadows" stroke-width="1" fill-rule="evenodd">
                                    <g id="Group-2" transform="translate(1.000000, 91.000000)" fill="url(#linearGradient-4)">
                                        <path d="M48.8098096,142.361102 L2.22044605e-15,93.5512925 L1.42108547e-14,70.9512925 L70.4256463,0.525646255 L168,98.1 L168,143 L196,143 L196,126.1 L225.466062,155.566062 L165.001518,216.030606 L70.0709117,121.1 L48.8098096,142.361102 Z" id="Combined-Shape"></path>
                                    </g>
                                    <g id="Group" fill="url(#linearGradient-4)">
                                        <path d="M218.75487,214.524675 L206.639772,226.639772 L71,91 L49.6150974,112.384903 L0.7,63.4698052 L64.0698052,0.1 L128.569805,64.6 L98.7,94.4698052 L218.75487,214.524675 Z" id="Combined-Shape"></path>
                                    </g>
                                    <g id="Group-3" transform="translate(98.000000, 31.000000)" fill="url(#linearGradient-4)">
                                        <path d="M206.010131,228.039219 L248.89448,185.15487 L64.3396103,0.6 L0.969805153,63.9698052 L50.5854558,113.585456 L71.0709117,93.1 L206.010131,228.039219 Z" id="Combined-Shape"></path>
                                    </g>
                                    <rect id="Rectangle" fill="url(#linearGradient-5)" transform="translate(229.662891, 248.062891) rotate(-45.000000) translate(-229.662891, -248.062891) " x="184.852889" y="117.562891" width="89.6200027" height="261"></rect>
                                    <rect id="Rectangle" fill="url(#linearGradient-5)" transform="translate(131.662891, 336.062891) rotate(-45.000000) translate(-131.662891, -336.062891) " x="86.8528894" y="205.562891" width="89.6200027" height="261"></rect>
                                </g>
                                <g id="Shape">
                                    <use fill="black" fill-opacity="1" filter="url(#filter-8)" xlink:href="#path-7"></use>
                                    <use fill="url(#linearGradient-6)" fill-rule="evenodd" xlink:href="#path-7"></use>
                                </g>
                            </g>
                        </g>
                    </g>
                </g>
                <g id="Rectangle-3" fill-opacity="1" fill="black">
                    <use filter="url(#filter-10)" xlink:href="#path-9"></use>
                </g>
            </g>
        </g>
    </g>
</svg>